<svg id="Flat" height="512" viewBox="0 0 512 512" width="512" xmlns="http://www.w3.org/2000/svg"><path d="m24 88h144v144h-144z" fill="#e74444"/><g fill="#ea8333"><path d="m24 88h144a0 0 0 0 1 0 0 32 32 0 0 1 -32 32h-80a32 32 0 0 1 -32-32 0 0 0 0 1 0 0z"/><path d="m56 192h80v40h-80z"/><path d="m56 160h80v16h-80z"/></g><path d="m192.006 272a7.987 7.987 0 0 1 -6.406-3.2l-21.6-28.8h-140a8 8 0 0 1 0-16h144a8 8 0 0 1 6.4 3.2l24 32a8 8 0 0 1 -6.394 12.8z" fill="#6a7073"/><circle cx="112" cy="344" fill="#7e8488" r="80"/><path d="m112 432a88 88 0 1 1 88-88 88.1 88.1 0 0 1 -88 88zm0-160a72 72 0 1 0 72 72 72.081 72.081 0 0 0 -72-72z" fill="#6a7073"/><path d="m64 352a8 8 0 0 1 -8-8 56.063 56.063 0 0 1 56-56 8 8 0 0 1 0 16 40.045 40.045 0 0 0 -40 40 8 8 0 0 1 -8 8z" fill="#6a7073"/><path d="m96 397.271a7.978 7.978 0 0 1 -2.666-.46 56.424 56.424 0 0 1 -28-21.84 8 8 0 1 1 13.324-8.858 40.323 40.323 0 0 0 20 15.613 8 8 0 0 1 -2.658 15.545z" fill="#6a7073"/><circle cx="408" cy="344" fill="#7e8488" r="80"/><path d="m408 432a88 88 0 1 1 88-88 88.1 88.1 0 0 1 -88 88zm0-160a72 72 0 1 0 72 72 72.081 72.081 0 0 0 -72-72z" fill="#6a7073"/><path d="m360 352a8 8 0 0 1 -8-8 56.063 56.063 0 0 1 56-56 8 8 0 0 1 0 16 40.045 40.045 0 0 0 -40 40 8 8 0 0 1 -8 8z" fill="#6a7073"/><path d="m392 397.271a7.978 7.978 0 0 1 -2.666-.46 56.424 56.424 0 0 1 -28-21.84 8 8 0 1 1 13.324-8.858 40.323 40.323 0 0 0 20 15.613 8 8 0 0 1 -2.658 15.545z" fill="#6a7073"/><path d="m369.552 222.874a8 8 0 0 0 -11.308.365l-99.356 105.984-32.215-83.76 129.863-34.177a8 8 0 0 0 -4.072-15.473l-131.664 34.651-13.374-33.435a8 8 0 1 0 -14.856 5.942l14.041 35.1-100.27 100.27a8 8 0 0 0 11.314 11.314l95.3-95.295 35.581 92.51a8 8 0 0 0 13.3 2.6l108.08-115.29a8 8 0 0 0 -.364-11.306z" fill="#d9dbdd"/><path d="m256 352h-144a8 8 0 0 1 0-16h144a8 8 0 0 1 0 16z" fill="#d9dbdd"/><circle cx="112" cy="344" fill="#6a7073" r="16"/><circle cx="256" cy="344" fill="#6a7073" r="32"/><path d="m256 416a8 8 0 0 1 -8-8v-64a8 8 0 0 1 16 0v64a8 8 0 0 1 -8 8z" fill="#d9dbdd"/><path d="m272 416h-32a8 8 0 0 1 0-16h32a8 8 0 0 1 0 16z" fill="#6a7073"/><path d="m168 168h48a32 32 0 0 1 32 32 0 0 0 0 1 0 0h-80a0 0 0 0 1 0 0v-32a0 0 0 0 1 0 0z" fill="#6a7073"/><path d="m408 352a8 8 0 0 1 -7.478-5.154l-64-168a8 8 0 0 1 5.536-10.609l64-16a8 8 0 0 1 7.6 2.1c1.919 1.92 11.035 12.88 1.933 40.187a8 8 0 0 1 -15.18-5.06c3.334-10 3.445-16.365 2.886-20.048l-48.611 12.153 60.791 159.577a8 8 0 0 1 -7.477 10.854z" fill="#d9dbdd"/><circle cx="408" cy="344" fill="#6a7073" r="16"/></svg>