<svg xmlns="http://www.w3.org/2000/svg" xmlns:xlink="http://www.w3.org/1999/xlink" version="1.1" x="0px" y="0px" viewBox="0 0 100 125" enable-background="new 0 0 100 100" xml:space="preserve"><g><path fill="none" d="M47.257,42.15c1.389,0.333,1.602-0.744,1.719-1.842c0.07-0.657,0.132-1.244,0.082-1.848   c-0.629,0.243-1.244,0.537-1.725,1.005C46.645,40.136,45.855,41.814,47.257,42.15z"/><path fill="none" d="M22.934,40.245c1.047,0.847,1.727-0.146,2.418-0.939c0.303-0.347,0.591-0.707,0.874-1.07   c-0.682-0.222-1.385-0.37-2.097-0.26C22.971,38.156,21.628,39.188,22.934,40.245z"/><path fill="none" d="M53.006,59.014c-4.603-1.366-9.233-2.646-13.812-4.09c-0.08,0-0.161,0-0.241,0   c-0.552,1.298-1.352,2.277-2.327,3.006C41.365,61.151,47.791,61.2,53.006,59.014z"/><path fill="none" d="M28.342,52.284c8.148,1.221,16.299,0.07,24.481,0.457c7.168,0.339,14.066-0.816,21.156-1.689   c5.011-0.617,14.125-2.198,16.53-7.403c2.55-5.516-2.568-14.348-6.169-18.372c-4.359-4.872-10.513-7.993-16.636-10.036   c-13.278-4.43-28.848-3.981-41.412,2.524c-5.434,2.813-9.415,6.754-12.054,12.283c-2.112,4.426-4.04,10.259-2.571,15.16   C14.171,50.612,23.187,51.512,28.342,52.284z M76.908,38.162c1.02,1.02,0.667,2.916-0.201,3.925   c-1.121,1.303-2.858,0.989-4.022-0.079c-1.432-1.313-1.605-3.205-1.619-5.034c-0.002-0.211,0.074-0.367,0.178-0.493   c0.128-0.19,0.332-0.328,0.635-0.32c0.932,0.024,1.68,0.252,2.518,0.638C75.216,37.176,76.253,37.507,76.908,38.162z    M66.156,19.839c0.072-0.001,0.138,0.013,0.205,0.031c1.543,0.317,3.549,0.27,4.827,1.26c1.119,0.867,1.058,2.686,0.392,3.825   c-0.898,1.535-2.771,1.464-4.09,0.524c-1.523-1.085-1.961-2.815-2.223-4.566C65.137,20.419,65.516,19.771,66.156,19.839z    M47.475,21.977c1.078-1.481,2.759-1.94,4.48-2.235c0.113-0.023,0.229-0.026,0.346,0.001c0.172,0.031,0.313,0.116,0.428,0.23   c0.133,0.121,0.229,0.278,0.261,0.471c0.023,0.11,0.022,0.218,0.003,0.323c-0.269,1.591-0.134,3.686-1.234,5.005   c-0.901,1.08-2.756,1.002-3.872,0.298C46.399,25.131,46.535,23.269,47.475,21.977z M45.274,39.572   c0.835-1.686,2.518-2.4,4.197-2.99c0.374-0.132,0.666,0.01,0.833,0.257c0.072,0.082,0.129,0.185,0.167,0.311   c0.285,0.954,0.277,1.785,0.172,2.769c-0.092,0.863-0.067,1.911-0.509,2.685c-0.705,1.233-2.543,1.472-3.772,0.958   C44.725,42.878,44.556,41.021,45.274,39.572z M28.585,22.636c0.466-1.632,2.253-2.022,3.721-1.622   c1.744,0.476,2.784,1.903,3.705,3.357c0.153,0.241,0.157,0.476,0.075,0.674c-0.058,0.243-0.235,0.451-0.561,0.521   c-1.606,0.346-3.698,1.372-5.347,0.796C28.811,25.884,28.216,23.928,28.585,22.636z M22.3,36.905   c1.765-1.007,3.673-0.513,5.454,0.16c0.126,0.048,0.228,0.117,0.309,0.198c0.313,0.214,0.472,0.601,0.177,0.996   c-0.025,0.033-0.051,0.069-0.076,0.103c-0.019,0.03-0.04,0.058-0.062,0.085c-0.924,1.26-1.941,2.826-3.315,3.569   c-1.358,0.735-3.069-0.266-3.756-1.497C20.25,39.124,21.015,37.638,22.3,36.905z"/><path fill="none" d="M34.02,24.304c-0.387-0.555-0.824-1.077-1.408-1.416c-0.816-0.474-2.51-0.779-2.499,0.615   C30.13,25.456,32.403,24.802,34.02,24.304z"/><path fill="none" d="M49.322,24.902c0.499,0.103,1.004,0.107,1.298-0.346c0.245-0.378,0.306-1.007,0.398-1.43   c0.117-0.539,0.182-1.074,0.245-1.61c-0.637,0.139-1.261,0.339-1.784,0.713C48.553,22.892,47.727,24.574,49.322,24.902z"/><path fill="none" d="M75.587,40.873c0.236-0.345,0.412-0.983,0.241-1.38c-0.166-0.386-0.645-0.538-1.011-0.711   c-0.709-0.334-1.376-0.697-2.109-0.878c0.029,0.773,0.128,1.552,0.52,2.218C73.682,40.894,74.868,41.921,75.587,40.873z"/><path fill="none" d="M70.383,23.538c0.259-1.349-0.938-1.445-1.977-1.635c-0.457-0.083-0.919-0.164-1.38-0.248   c0.141,0.691,0.36,1.364,0.798,1.916C68.551,24.487,70.088,25.078,70.383,23.538z"/><path fill="none" d="M51.588,80.102c-11.277,0.12-22.045-1.675-33.185-2.951c-3.034-0.347-5.599-0.857-7.175-2.301   c0.18,1.083,0.415,2.053,0.59,2.693c0.455,1.67,1.038,3.501,2.085,4.908c1.962,2.634,5.387,3.066,8.439,3.416   c5.22,0.599,10.463,0.415,15.668,0.944c2.366,0.241,4.715,0.695,7.088,0.864c2.794,0.199,5.551-0.204,8.34-0.26   c5.76-0.116,11.29,0.454,17.022-0.596c4.576-0.838,9.039-2.201,13.591-3.159c2.687-0.566,5.174-0.973,6.254-3.89   c0.548-1.48,0.719-3.043,0.754-4.61c0.006-0.268,0.009-0.572,0.008-0.891c-1.581,1.974-5.519,2.397-7.795,2.904   C72.982,79.465,62.104,79.989,51.588,80.102z"/><path fill="none" d="M20.854,72.42c3.853,0.513,7.71,1.05,11.586,1.346c7.382,0.564,14.558,0.956,21.973,0.828   c6.833-0.118,13.833-0.377,20.623-1.174c2.951-0.346,6.329-0.865,9.061-2.093c1.717-0.772,2.022-1.424,1.962-3.297   c-0.037-1.166-0.187-2.615-0.86-3.599c-0.002-0.003-0.003-0.006-0.005-0.01c-1.082-0.339-2.144-0.794-3.269-0.882   c-1.989-0.155-1.213,0.134-2.026,0.936c-1.296,1.28-2.212,2.701-4.139,1.891c-1.79-0.753-1.934-2.418-4.429-1.3   c-1.402,0.628-2.424,2.323-3.648,3.238c-1.554,1.163-3.3,1.8-5.019,0.666c-0.733-0.484-2.58-3.692-3.25-3.674   c-0.355,0.009-1.082,2.017-1.35,2.462c-1.251,2.078-1.629,1.95-3.453,1.34c-0.53-0.85-1.099-0.894-1.708-0.133   c-0.253,0.148-0.506,0.295-0.759,0.442c-0.375,0.199-0.71,0.432-1.12,0.552c-1.046,0.305-1.931,0.266-2.964-0.101   c-1.376-0.489-2.85-1.581-3.938-2.58c-0.938-0.861-1.445-2.236-2.702-2.202c-2.077,0.055-3.906,2.732-6.05,2.464   c-1.513-0.19-2.275-1.951-3.743-2.361c-2.733-0.765-2.897,0.937-4.329,2.505c-1.108,1.213-1.85,1.192-3.063,0.228   c-1.365-1.085-0.891-1.131-2.295-0.209c-0.306,0.201-0.426,0.426-0.808,0.631c-0.587,0.315-1.668,0.398-2.307,0.248   c-2.79-0.653-1.651-2.608-2.193-4.668c-0.046-0.173-0.104-0.314-0.17-0.439c-1.807,0.898-2.463,3.796-1.873,5.573   C15.495,71.775,18.417,72.096,20.854,72.42z"/><path fill="none" d="M15.355,51.288c-1.044,2.445-0.524,4.101,1.589,4.953c0.94,0.436,1.918,0.745,2.933,0.928   c1.858,0.39,3.823,0.498,5.715,0.619c3.88,0.248,9.452,1.135,11.58-2.876c-4.458-0.055-8.892-0.33-13.397-1.225   C21.223,53.18,18.084,52.527,15.355,51.288z"/><path fill="none" d="M87.315,71.043c-1.298,2.247-5.733,2.833-7.962,3.297c-9.407,1.96-19.659,1.899-29.232,1.889   c-5.764-0.006-11.291-0.323-17.033-0.792c-3.025-0.247-6.021-0.59-9.031-0.977c-2.341-0.302-4.975-0.302-7.219-1.061   c-2.375-0.803-3.786-3.181-4.008-5.606c-0.887,0.375-1.396,1.179-1.648,2.196c-0.186,3.507,1.751,5.022,5.28,5.396   c2.586,0.274,5.11,0.654,7.688,1.055c8.686,1.349,17.453,2.079,26.245,2.044c8.878-0.035,17.975-0.487,26.761-1.797   c2.865-0.427,5.737-1.02,8.538-1.765c1.777-0.473,3.823-0.879,4.454-2.77c0.275-0.825,0.349-2.152,0.173-3.289   c-0.506-1.373-1.343-2.444-2.717-2.67C87.977,67.921,87.976,69.898,87.315,71.043z"/><path fill="none" d="M93.175,55.759c0.026-0.189-0.744-3.351-0.866-3.714c-1.384-4.127-3.837-2.354-6.041-1.478   c1.915,1.645,2.751,4.295,0.117,6.042c-3.588,2.38-9.613,2.575-13.813,2.017c-1.865,1.512-3.716,3.041-5.504,4.644   c-0.201,0.18-0.519,0.317-0.791,0.209c-3.596-1.43-7.265-2.639-10.96-3.768c-6.017,3.192-14.15,3.513-19.833-0.588   c-0.136-0.098-0.225-0.219-0.282-0.348c-4.182,1.934-10.331,0.795-14.55,0.157c-2.95-0.446-6.557-1.499-7.74-4.606   c-0.476-1.25-0.326-2.442,0.315-3.394c-0.049-0.016-0.098-0.034-0.148-0.06c-3.081,1.202-4.072,2.458-2.973,3.77   c0.027,0.065,0.055,0.13,0.082,0.194c-0.009,0.336,0.33,0.648,0.287,1c-0.042,0.34-0.223,0.521-0.396,0.806   c-0.377,0.623-1.517,0.823-2.026,1.264c-0.969,0.839-0.553,0.216-0.431,1.115c0.781,5.791,7.354,0.285,10.083,2.636   c1.312,1.13-0.212,2.747,0.489,3.964c0.899,0.247,1.798,0.495,2.697,0.742c0.102-0.183,0.205-0.366,0.307-0.548   c0.137-0.066,0.162-0.315,0.312-0.382c0.419-0.187,0.533-0.538,1.084-0.604c1.342-0.16,1.816,1.871,2.791,1.93   c1.108,0.067,2.211-2.758,3.333-3.381c1.368-0.761,2.087-0.489,3.381,0.174c2.184,1.119,2.92,2.498,5.344,1.526   c3.074-1.233,4.346-2.782,6.816-0.083c1.057,1.155,2.195,2.275,3.628,2.979c1.949,0.957,2.81,0.158,4.579-0.623   c1.572-0.693,1.266-0.106,2.586,0.033c2.636,0.276,2.148-4.768,4.847-3.812c2.104,0.745,2.325,4.569,5.106,4.346   c2.002-0.161,3.595-2.98,5.185-4.029c1.062-0.7,2.272-1.253,3.542-0.858c1.283,0.4,4.461,4.347,4.779-0.029   c0.026-0.355,0.231-0.692,0.597-0.784c1.066-0.27,2.005-0.439,3.088-0.311c1.062,0.125,4.326,1.826,5.261,1.326   c1.949-1.041-1.146-4.025,0.346-5.381C89.184,56.603,92.809,58.443,93.175,55.759z"/><path fill="none" d="M80.161,56.81c1.409-0.246,3.993-0.42,5.081-1.422c1.865-1.717,0.799-3.563-1.22-4.36   c-1.174,0.436-2.382,0.797-3.581,1.095c-1.984,1.739-4.029,3.402-6.082,5.059C76.298,57.296,78.268,57.141,80.161,56.81z"/><path fill="none" d="M55.714,58.115c1.879,0.572,3.751,1.166,5.61,1.801c1.604,0.548,3.89,1.955,5.606,1.298   c1.467-0.561,3.336-2.82,4.551-3.797c1.903-1.531,3.808-3.055,5.679-4.62c-0.636,0.104-1.259,0.194-1.856,0.266   c-4.506,0.543-8.99,1.315-13.512,1.723c-4.515,0.407-8.953,0-13.468,0.037c-1.241,0.01-2.473,0.028-3.701,0.047   c3.557,1.045,7.128,2.047,10.677,3.121C55.452,57.99,55.593,58.036,55.714,58.115z"/><path d="M91.179,58.912c1.509-0.239,3.703-0.638,3.815-2.546c0.084-1.428-0.732-3.307-1.071-4.646   c-0.289-1.14-0.35-2.276-1.376-3.11c-0.855-0.696-1.718-0.907-2.581-0.867c0.495-0.413,0.959-0.85,1.375-1.321   c4.02-4.555,0.991-11.994-1.337-16.615c-3.024-6.004-8.097-10.358-14-13.412c-14.23-7.361-31.871-8.283-46.769-2.335   c-7.129,2.846-12.872,7.137-16.434,14.022c-2.662,5.145-4.992,12.03-3.196,17.811c0.027,0.087,0.062,0.164,0.102,0.235   c0.003,0.008,0.004,0.016,0.008,0.024c0.463,1.07,1.146,1.973,1.967,2.752c-2.229-0.104-4.587,1.024-4.573,3.647   c0.006,1.237,0.698,1.173,0.99,2.24c0.424,1.553,0.641,0.43-0.539,1.535c-0.828,0.775-2.1,0.834-2.523,2.013   c-0.096,0.269,0.017,0.596,0.209,0.791c1.677,1.699,1.53,3.442,4.083,4.046c1.188,0.281,2.473,0.255,3.674,0.117   c0.462-0.053,0.926-0.178,1.364-0.282c-0.685,0.693-1.14,1.56-1.373,2.51c-0.102-0.005-0.209,0-0.323,0.027   c-6.196,1.469-3.547,11.796-1.864,15.657c3.915,8.98,16.827,7.309,24.945,7.608c2.512,0.092,4.994,0.54,7.487,0.833   c3.015,0.355,5.922,0.136,8.946-0.005c5.806-0.272,11.476,0.438,17.273-0.463c5.125-0.797,10.102-2.358,15.173-3.426   c3.726-0.785,6.4-1.589,7.769-5.405c1.507-4.2,1.727-14.138-3.39-16.044c0.406-0.331,0.689-0.837,0.782-1.59   c0.123-0.999-1.095-2.827-0.768-3.531C89.005,59.214,90.416,59.033,91.179,58.912z M11.668,45.209   c-1.469-4.901,0.459-10.734,2.571-15.16c2.639-5.529,6.62-9.47,12.054-12.283c12.564-6.505,28.135-6.953,41.412-2.524   c6.123,2.043,12.277,5.163,16.636,10.036c3.601,4.024,8.719,12.856,6.169,18.372c-2.406,5.204-11.519,6.785-16.53,7.403   c-7.09,0.874-13.987,2.028-21.156,1.689c-8.183-0.387-16.333,0.763-24.481-0.457C23.187,51.512,14.171,50.612,11.668,45.209z    M38.953,54.924c0.08,0,0.161,0,0.241,0c4.578,1.443,9.209,2.724,13.812,4.09c-5.215,2.186-11.641,2.138-16.379-1.083   C37.601,57.201,38.401,56.222,38.953,54.924z M25.593,57.787c-1.892-0.121-3.858-0.229-5.715-0.619   c-1.015-0.183-1.993-0.492-2.933-0.928c-2.113-0.852-2.633-2.508-1.589-4.953c2.729,1.24,5.868,1.892,8.42,2.399   c4.505,0.895,8.939,1.169,13.397,1.225C35.045,58.922,29.473,58.035,25.593,57.787z M44.623,54.87   c1.228-0.018,2.46-0.036,3.701-0.047c4.514-0.037,8.953,0.37,13.468-0.037c4.522-0.408,9.006-1.18,13.512-1.723   c0.597-0.072,1.22-0.162,1.856-0.266c-1.871,1.565-3.776,3.089-5.679,4.62c-1.215,0.978-3.084,3.236-4.551,3.797   c-1.717,0.657-4.002-0.75-5.606-1.298c-1.859-0.635-3.731-1.229-5.61-1.801c-0.121-0.079-0.262-0.125-0.414-0.124   C51.752,56.917,48.181,55.914,44.623,54.87z M80.442,52.124c1.199-0.298,2.406-0.66,3.581-1.095c2.018,0.797,3.085,2.643,1.22,4.36   c-1.088,1.002-3.672,1.176-5.081,1.422c-1.893,0.331-3.863,0.486-5.801,0.372C76.412,55.526,78.458,53.863,80.442,52.124z    M91.067,74.269c0.001,0.319-0.002,0.624-0.008,0.891c-0.035,1.567-0.206,3.129-0.754,4.61c-1.08,2.917-3.567,3.324-6.254,3.89   c-4.552,0.959-9.015,2.321-13.591,3.159c-5.732,1.05-11.262,0.48-17.022,0.596c-2.788,0.056-5.545,0.459-8.34,0.26   c-2.374-0.169-4.722-0.623-7.088-0.864c-5.206-0.53-10.448-0.345-15.668-0.944c-3.052-0.35-6.476-0.782-8.439-3.416   c-1.048-1.406-1.63-3.237-2.085-4.908c-0.174-0.64-0.409-1.61-0.59-2.693c1.576,1.444,4.141,1.953,7.175,2.301   c11.139,1.275,21.907,3.071,33.185,2.951c10.516-0.112,21.393-0.636,31.684-2.928C85.548,76.667,89.486,76.244,91.067,74.269z    M90.321,68.863c0.175,1.136,0.102,2.464-0.173,3.289c-0.631,1.891-2.677,2.298-4.454,2.77c-2.801,0.745-5.673,1.338-8.538,1.765   c-8.786,1.31-17.883,1.762-26.761,1.797c-8.792,0.035-17.559-0.695-26.245-2.044c-2.578-0.401-5.102-0.78-7.688-1.055   c-3.528-0.374-5.466-1.889-5.28-5.396c0.252-1.017,0.761-1.821,1.648-2.196c0.222,2.425,1.632,4.804,4.008,5.606   c2.244,0.758,4.879,0.759,7.219,1.061c3.01,0.388,6.007,0.73,9.031,0.977c5.742,0.47,11.269,0.786,17.033,0.792   c9.573,0.01,19.824,0.072,29.232-1.889c2.229-0.465,6.665-1.05,7.962-3.297c0.661-1.145,0.662-3.122,0.289-4.85   C88.978,66.419,89.815,67.49,90.321,68.863z M16.464,63.476c0.065,0.125,0.124,0.265,0.17,0.439   c0.542,2.06-0.596,4.016,2.193,4.668c0.638,0.149,1.719,0.067,2.307-0.248c0.382-0.205,0.502-0.43,0.808-0.631   c1.404-0.922,0.93-0.876,2.295,0.209c1.213,0.964,1.955,0.985,3.063-0.228c1.432-1.568,1.596-3.27,4.329-2.505   c1.468,0.411,2.229,2.172,3.743,2.361c2.143,0.269,3.972-2.409,6.05-2.464c1.256-0.033,1.764,1.342,2.702,2.202   c1.088,0.999,2.563,2.091,3.938,2.58c1.033,0.367,1.918,0.405,2.964,0.101c0.41-0.12,0.746-0.353,1.12-0.552   c0.253-0.147,0.506-0.295,0.759-0.442c0.609-0.761,1.178-0.717,1.708,0.133c1.824,0.609,2.202,0.738,3.453-1.34   c0.268-0.445,0.994-2.453,1.35-2.462c0.671-0.018,2.517,3.19,3.25,3.674c1.719,1.135,3.464,0.497,5.019-0.666   c1.224-0.916,2.246-2.61,3.648-3.238c2.495-1.118,2.639,0.547,4.429,1.3c1.927,0.81,2.842-0.61,4.139-1.891   c0.813-0.803,0.038-1.091,2.026-0.936c1.125,0.087,2.186,0.543,3.269,0.882c0.002,0.003,0.003,0.006,0.005,0.01   c0.673,0.983,0.823,2.433,0.86,3.599c0.06,1.873-0.245,2.525-1.962,3.297c-2.732,1.228-6.11,1.747-9.061,2.093   c-6.79,0.797-13.791,1.055-20.623,1.174c-7.415,0.128-14.591-0.264-21.973-0.828c-3.876-0.296-7.733-0.833-11.586-1.346   c-2.437-0.324-5.359-0.645-6.263-3.371C14.001,67.272,14.656,64.374,16.464,63.476z M87.46,63.236   c-0.936,0.5-4.199-1.201-5.261-1.326c-1.083-0.128-2.022,0.041-3.088,0.311c-0.366,0.093-0.571,0.43-0.597,0.784   c-0.319,4.376-3.496,0.429-4.779,0.029c-1.269-0.396-2.479,0.157-3.542,0.858c-1.59,1.048-3.183,3.868-5.185,4.029   c-2.781,0.224-3.002-3.601-5.106-4.346c-2.699-0.955-2.211,4.089-4.847,3.812c-1.32-0.138-1.014-0.726-2.586-0.033   c-1.769,0.78-2.631,1.579-4.579,0.623c-1.434-0.704-2.571-1.824-3.628-2.979c-2.47-2.699-3.742-1.15-6.816,0.083   c-2.424,0.972-3.16-0.407-5.344-1.526c-1.294-0.663-2.013-0.935-3.381-0.174c-1.121,0.624-2.224,3.448-3.333,3.381   c-0.975-0.059-1.449-2.091-2.791-1.93c-0.551,0.066-0.666,0.417-1.084,0.604c-0.15,0.067-0.174,0.316-0.312,0.382   c-0.102,0.183-0.205,0.366-0.307,0.548c-0.899-0.247-1.798-0.495-2.697-0.742c-0.7-1.217,0.823-2.834-0.489-3.964   c-2.729-2.352-9.302,3.154-10.083-2.636c-0.121-0.899-0.537-0.276,0.431-1.115c0.509-0.441,1.648-0.641,2.026-1.264   c0.173-0.286,0.353-0.466,0.396-0.806c0.044-0.352-0.296-0.664-0.287-1c-0.027-0.065-0.055-0.129-0.082-0.194   c-1.099-1.311-0.108-2.568,2.973-3.77c0.05,0.026,0.099,0.044,0.148,0.06c-0.64,0.952-0.79,2.145-0.315,3.394   c1.182,3.106,4.79,4.159,7.74,4.606c4.219,0.638,10.367,1.777,14.55-0.157c0.057,0.129,0.146,0.249,0.282,0.348   c5.683,4.102,13.816,3.78,19.833,0.588c3.695,1.129,7.363,2.338,10.96,3.768c0.272,0.108,0.591-0.029,0.791-0.209   c1.789-1.604,3.64-3.132,5.504-4.644c4.2,0.558,10.225,0.363,13.813-2.017c2.634-1.747,1.797-4.398-0.117-6.042   c2.204-0.876,4.657-2.649,6.041,1.478c0.122,0.363,0.892,3.525,0.866,3.714c-0.367,2.683-3.991,0.843-5.369,2.096   C86.314,59.211,89.409,62.195,87.46,63.236z"/><path d="M24.787,42.018c1.373-0.743,2.391-2.309,3.315-3.569c0.022-0.027,0.043-0.055,0.062-0.085   c0.025-0.034,0.051-0.07,0.076-0.103c0.295-0.395,0.136-0.782-0.177-0.996c-0.081-0.082-0.183-0.151-0.309-0.198   c-1.781-0.674-3.688-1.167-5.454-0.16c-1.285,0.733-2.05,2.219-1.269,3.616C21.718,41.751,23.429,42.753,24.787,42.018z    M24.129,37.976c0.712-0.11,1.415,0.038,2.097,0.26c-0.283,0.363-0.571,0.723-0.874,1.07c-0.691,0.793-1.371,1.786-2.418,0.939   C21.628,39.188,22.971,38.156,24.129,37.976z"/><path d="M30.178,26.362c1.649,0.576,3.741-0.45,5.347-0.796c0.326-0.07,0.503-0.278,0.561-0.521   c0.082-0.198,0.078-0.433-0.075-0.674c-0.922-1.455-1.962-2.882-3.705-3.357c-1.468-0.4-3.254-0.01-3.721,1.622   C28.216,23.928,28.811,25.884,30.178,26.362z M32.612,22.888c0.584,0.339,1.021,0.861,1.408,1.416   c-1.618,0.498-3.891,1.151-3.907-0.801C30.102,22.109,31.796,22.415,32.612,22.888z"/><path d="M71.244,36.48c-0.104,0.126-0.18,0.283-0.178,0.493c0.015,1.83,0.188,3.721,1.619,5.034   c1.164,1.068,2.901,1.382,4.022,0.079c0.868-1.009,1.221-2.905,0.201-3.925c-0.655-0.655-1.692-0.985-2.511-1.363   c-0.838-0.386-1.585-0.614-2.518-0.638C71.576,36.153,71.371,36.29,71.244,36.48z M74.817,38.782   c0.366,0.172,0.845,0.324,1.011,0.711c0.17,0.397-0.005,1.035-0.241,1.38c-0.719,1.049-1.904,0.022-2.359-0.751   c-0.392-0.666-0.491-1.445-0.52-2.218C73.441,38.085,74.107,38.448,74.817,38.782z"/><path d="M67.49,25.48c1.318,0.939,3.192,1.011,4.09-0.524c0.666-1.139,0.727-2.958-0.392-3.825c-1.278-0.99-3.284-0.944-4.827-1.26   c-0.067-0.018-0.133-0.032-0.205-0.031c-0.641-0.068-1.02,0.58-0.889,1.075C65.529,22.666,65.967,24.395,67.49,25.48z    M68.406,21.903c1.039,0.19,2.236,0.286,1.977,1.635c-0.295,1.54-1.833,0.949-2.559,0.034c-0.438-0.552-0.657-1.225-0.798-1.916   C67.487,21.739,67.95,21.819,68.406,21.903z"/><path d="M46.363,43.563c1.229,0.514,3.067,0.275,3.772-0.958c0.442-0.774,0.417-1.822,0.509-2.685   c0.105-0.984,0.112-1.815-0.172-2.769c-0.038-0.126-0.095-0.229-0.167-0.311c-0.167-0.246-0.46-0.388-0.833-0.257   c-1.679,0.591-3.362,1.305-4.197,2.99C44.556,41.021,44.725,42.878,46.363,43.563z M47.333,39.466   c0.481-0.469,1.096-0.762,1.725-1.005c0.05,0.604-0.012,1.191-0.082,1.848c-0.117,1.098-0.33,2.175-1.719,1.842   C45.855,41.814,46.645,40.136,47.333,39.466z"/><path d="M47.888,26.07c1.116,0.704,2.971,0.782,3.872-0.298c1.1-1.318,0.965-3.413,1.234-5.005c0.02-0.105,0.021-0.213-0.003-0.323   c-0.032-0.193-0.128-0.349-0.261-0.471c-0.115-0.114-0.255-0.199-0.428-0.23c-0.118-0.027-0.234-0.024-0.346-0.001   c-1.722,0.295-3.402,0.754-4.48,2.235C46.535,23.269,46.399,25.131,47.888,26.07z M49.48,22.229   c0.523-0.375,1.147-0.575,1.784-0.713c-0.064,0.536-0.128,1.071-0.245,1.61c-0.092,0.424-0.153,1.052-0.398,1.43   c-0.294,0.453-0.799,0.448-1.298,0.346C47.727,24.574,48.553,22.892,49.48,22.229z"/></g><text x="0" y="115" fill="#000000" font-size="5px" font-weight="bold" font-family="'Helvetica Neue', Helvetica, Arial-Unicode, Arial, Sans-serif">Created by Vladimir Belochkin</text><text x="0" y="120" fill="#000000" font-size="5px" font-weight="bold" font-family="'Helvetica Neue', Helvetica, Arial-Unicode, Arial, Sans-serif">from the Noun Project</text></svg>