<svg height="511pt" viewBox="-4 0 511 511.26249" width="511pt" xmlns="http://www.w3.org/2000/svg"><path d="m37.738281 334.710938 13.945313 160.398437c.78125 9.125 8.40625 16.140625 17.566406 16.152344h214.863281l27.71875-132.414063 3.796875-44.136718 2.296875-97.105469-282.484375 17.65625zm0 0" fill="#cbb292"/><path d="m335.578125 61.054688v17.65625h-317.792969v-69.851563c-.007812-2.476563 1.023438-4.839844 2.839844-6.515625 1.816406-1.679688 4.257812-2.519531 6.722656-2.3125l300.136719 25.015625c4.585937.382813 8.109375 4.226563 8.09375 8.828125zm0 0" fill="#7f5b53"/><path d="m22.375 149.332031-4.589844-52.964843h317.792969l-4.589844 52.964843-4.238281 44.136719h-300.136719zm0 0" fill="#cbb292"/><path d="m17.785156 158.160156h317.792969c4.875 0 8.828125 3.949219 8.828125 8.828125v158.894531c0 4.875-3.953125 8.828126-8.828125 8.828126h-317.792969c-4.875 0-8.828125-3.953126-8.828125-8.828126v-158.894531c0-4.878906 3.953125-8.828125 8.828125-8.828125zm0 0" fill="#af8066"/><path d="m8.957031 61.054688h335.449219c4.875 0 8.828125 3.953124 8.828125 8.828124v26.484376c0 4.875-3.953125 8.828124-8.828125 8.828124h-335.449219c-4.875 0-8.824219-3.953124-8.824219-8.828124v-26.484376c0-4.875 3.949219-8.828124 8.824219-8.828124zm0 0" fill="#af8066"/><path d="m53.097656 228.78125c-4.875 0-8.828125-3.953125-8.828125-8.828125v-26.484375c0-4.875 3.953125-8.828125 8.828125-8.828125s8.828125 3.953125 8.828125 8.828125v26.484375c0 4.875-3.953125 8.828125-8.828125 8.828125zm0 0" fill="#7f5b53"/><path d="m88.40625 228.78125c-4.875 0-8.828125-3.953125-8.828125-8.828125v-26.484375c0-4.875 3.953125-8.828125 8.828125-8.828125s8.828125 3.953125 8.828125 8.828125v26.484375c0 4.875-3.953125 8.828125-8.828125 8.828125zm0 0" fill="#7f5b53"/><path d="m264.957031 228.78125c-4.875 0-8.824219-3.953125-8.824219-8.828125v-26.484375c0-4.875 3.949219-8.828125 8.824219-8.828125 4.878907 0 8.828125 3.953125 8.828125 8.828125v26.484375c0 4.875-3.949218 8.828125-8.828125 8.828125zm0 0" fill="#7f5b53"/><path d="m300.269531 228.78125c-4.875 0-8.828125-3.953125-8.828125-8.828125v-26.484375c0-4.875 3.953125-8.828125 8.828125-8.828125s8.828125 3.953125 8.828125 8.828125v26.484375c0 4.875-3.953125 8.828125-8.828125 8.828125zm0 0" fill="#7f5b53"/><path d="m485.894531 299.402344-14.324219-62.90625c-2.714843-8.445313-9.890624-14.683594-18.628906-16.195313-8.738281-1.511719-17.59375 1.949219-22.984375 8.992188l-56.339843 70.109375zm0 0" fill="#f29c1f"/><path d="m31.840173 38.000019h-.010177" fill="none" stroke="#000" stroke-linecap="round" stroke-linejoin="round" stroke-width="2" transform="matrix(8.827586 0 0 8.827586 .13125 -.737508)"/><path d="m199.863281 433.394531 91.808594-111.484375c17.679687 14.996094 43.617187 14.996094 61.296875 0l91.808594 111.484375c3.433594 4.054688 5.3125 9.199219 5.296875 14.511719-.03125 7.90625-4.035157 15.265625-10.65625 19.589844-71.105469 46.59375-163.070313 46.59375-234.179688 0-5.535156-3.574219-9.285156-9.339844-10.3125-15.847656-1.027343-6.511719.769531-13.148438 4.9375-18.253907zm0 0" fill="#f29c1f"/><path d="m344.40625 330.738281c8.367188-8.128906 14.023438-18.640625 16.199219-30.101562 1.019531-5.730469 5.941406-9.941407 11.757812-10.0625h107.21875c7.0625.074219 13.742188 3.222656 18.300781 8.621093 4.554688 5.394532 6.53125 12.507813 5.421876 19.484376-5.441407 38.507812-21.792969 74.65625-47.121094 104.164062-4.628906 5.265625-11.335938 8.234375-18.34375 8.121094-7.011719-.113282-13.617188-3.296875-18.070313-8.710938zm0 0" fill="#e57e25"/><g fill="#d25627"><path d="m338.605469 458.296875c2.3125.042969 4.519531.957031 6.179687 2.558594.773438.859375 1.390625 1.847656 1.828125 2.914062.453125 1.0625.691407 2.203125.707031 3.355469-.03125 2.332031-.9375 4.566406-2.535156 6.265625-2.5 2.507813-6.273437 3.242187-9.53125 1.855469-1.058594-.449219-2.03125-1.078125-2.878906-1.855469-1.601562-1.695313-2.507812-3.933594-2.542969-6.265625.015625-1.152344.253907-2.292969.707031-3.355469.792969-2.207031 2.515626-3.949219 4.714844-4.765625 1.046875-.5 2.195313-.742187 3.351563-.707031zm0 0"/><path d="m399.792969 440.640625c2.308593.042969 4.515625.957031 6.175781 2.5625.769531.859375 1.386719 1.84375 1.828125 2.910156.453125 1.0625.695313 2.203125.707031 3.355469-.03125 2.332031-.9375 4.570312-2.535156 6.269531-2.5 2.503907-6.273438 3.238281-9.53125 1.851563-1.058594-.449219-2.03125-1.078125-2.878906-1.851563-1.597656-1.699219-2.507813-3.9375-2.542969-6.269531.015625-1.152344.253906-2.292969.707031-3.355469.792969-2.203125 2.515625-3.949219 4.714844-4.765625 1.046875-.5 2.195312-.742187 3.355469-.707031zm0 0"/><path d="m443.65625 370.019531c2.308594.042969 4.515625.957031 6.179688 2.5625.765624.859375 1.382812 1.84375 1.828124 2.914063.449219 1.058594.691407 2.199218.703126 3.351562-.03125 2.332032-.933594 4.570313-2.53125 6.269532-2.503907 2.503906-6.277344 3.238281-9.535157 1.851562-1.058593-.445312-2.03125-1.074219-2.878906-1.851562-1.597656-1.699219-2.503906-3.933594-2.539063-6.269532.011719-1.152344.253907-2.292968.703126-3.351562.441406-1.070313 1.0625-2.054688 1.835937-2.914063.847656-.777343 1.820313-1.40625 2.878906-1.855469 1.046875-.496093 2.195313-.738281 3.355469-.707031zm0 0"/><path d="m461.132812 334.710938c2.3125.042968 4.519532.957031 6.179688 2.558593.773438.863281 1.390625 1.847657 1.835938 2.914063.449218 1.0625.683593 2.203125.699218 3.355468-.027344 2.332032-.933594 4.570313-2.535156 6.265626-2.496094 2.507812-6.269531 3.242187-9.523438 1.855468-1.0625-.449218-2.039062-1.074218-2.886718-1.855468-1.597656-1.699219-2.5-3.933594-2.535156-6.265626.015624-1.152343.253906-2.292968.699218-3.355468.792969-2.207032 2.519532-3.953125 4.722656-4.765625 1.042969-.5 2.191407-.742188 3.34375-.707031zm0 0"/><path d="m233.71875 440.640625c2.308594.042969 4.515625.957031 6.179688 2.5625.769531.859375 1.390624 1.84375 1.835937 2.910156.445313 1.0625.683594 2.203125.695313 3.355469-.027344 2.332031-.929688 4.570312-2.53125 6.269531-2.5 2.503907-6.269532 3.238281-9.527344 1.851563-1.058594-.449219-2.035156-1.078125-2.886719-1.851563-1.597656-1.699219-2.5-3.9375-2.53125-6.269531.011719-1.152344.25-2.292969.695313-3.355469.792968-2.207031 2.523437-3.953125 4.722656-4.765625 1.042968-.5 2.191406-.742187 3.347656-.707031zm0 0"/><path d="m364.824219 431.8125c2.308593.042969 4.519531.957031 6.179687 2.5625.773438.859375 1.394532 1.84375 1.835938 2.914062.449218 1.0625.683594 2.199219.699218 3.351563-.027343 2.335937-.933593 4.570313-2.535156 6.269531-2.496094 2.503906-6.269531 3.238282-9.523437 1.851563-1.0625-.449219-2.035157-1.074219-2.886719-1.851563-1.597656-1.699218-2.503906-3.9375-2.535156-6.269531.015625-1.152344.25-2.289063.699218-3.351563.792969-2.210937 2.519532-3.953124 4.722657-4.769531 1.042969-.496093 2.1875-.738281 3.34375-.707031zm0 0"/><path d="m268.675781 431.8125c2.308594.042969 4.519531.957031 6.179688 2.5625.773437.859375 1.394531 1.84375 1.835937 2.914062.453125 1.058594.691406 2.199219.707032 3.351563-.03125 2.335937-.941407 4.574219-2.542969 6.269531-2.5 2.503906-6.269531 3.238282-9.527344 1.851563-1.058594-.449219-2.035156-1.074219-2.886719-1.851563-1.59375-1.703125-2.496094-3.9375-2.53125-6.269531.011719-1.152344.253906-2.292969.707032-3.351563.441406-1.066406 1.058593-2.054687 1.824218-2.914062.851563-.777344 1.828125-1.402344 2.886719-1.855469 1.042969-.496093 2.191406-.738281 3.347656-.707031zm0 0"/><path d="m294.902344 458.296875c2.308594.042969 4.515625.957031 6.179687 2.558594.769531.863281 1.390625 1.847656 1.835938 2.914062.445312 1.0625.683593 2.203125.695312 3.355469-.027343 2.332031-.929687 4.570312-2.53125 6.265625-2.5 2.507813-6.269531 3.242187-9.527343 1.855469-1.058594-.449219-2.035157-1.078125-2.886719-1.855469-1.59375-1.699219-2.492188-3.933594-2.523438-6.265625.015625-1.152344.25-2.292969.699219-3.355469.792969-2.207031 2.519531-3.953125 4.722656-4.765625 1.039063-.496094 2.183594-.738281 3.335938-.707031zm0 0"/></g><path d="m158.78125 300.28125 14.371094-62.894531c2.710937-8.441407 9.886718-14.683594 18.625-16.195313 8.738281-1.511718 17.59375 1.953125 22.988281 8.992188l56.292969 70.097656zm0 0" fill="#f29c1f"/><path d="m165.09375 291.457031h107.21875c5.816406.121094 10.742188 4.332031 11.757812 10.0625 2.175782 11.464844 7.832032 21.976563 16.199219 30.109375l-75.34375 91.472656c-4.453125 5.414063-11.0625 8.597657-18.070312 8.710938-7.007813.113281-13.714844-2.855469-18.34375-8.121094-25.328125-29.496094-41.6875-65.625-47.140625-104.121094-1.113282-6.976562.863281-14.089843 5.421875-19.492187 4.554687-5.398437 11.234375-8.546875 18.300781-8.621094zm0 0" fill="#e57e25"/><path d="m198.59375 362.078125c-2.308594.039063-4.515625.957031-6.179688 2.558594-.769531.859375-1.390624 1.847656-1.835937 2.914062-.445313 1.0625-.683594 2.199219-.699219 3.351563.027344 2.335937.933594 4.570312 2.535156 6.269531 2.496094 2.503906 6.269532 3.238281 9.523438 1.851563 1.0625-.449219 2.039062-1.074219 2.886719-1.851563 1.597656-1.699219 2.503906-3.9375 2.535156-6.269531-.015625-1.152344-.25-2.289063-.699219-3.351563-.792968-2.210937-2.519531-3.953125-4.722656-4.769531-1.042969-.496094-2.1875-.738281-3.34375-.703125zm0 0" fill="#d25627"/><path d="m181.097656 326.765625c-2.308594.042969-4.519531.957031-6.179687 2.558594-.773438.859375-1.394531 1.847656-1.835938 2.914062-.445312 1.0625-.683593 2.203125-.699219 3.355469.027344 2.332031.933594 4.570312 2.535157 6.265625 2.496093 2.507813 6.269531 3.242187 9.523437 1.855469 1.0625-.449219 2.039063-1.078125 2.886719-1.855469 1.597656-1.699219 2.503906-3.933594 2.535156-6.265625-.015625-1.152344-.25-2.292969-.699219-3.355469-.445312-1.066406-1.0625-2.050781-1.835937-2.914062-.847656-.773438-1.824219-1.402344-2.886719-1.851563-1.042968-.5-2.1875-.738281-3.34375-.707031zm0 0" fill="#d25627"/></svg>